<svg width="48" height="48" viewBox="0 0 48 48" fill="none" xmlns="http://www.w3.org/2000/svg">
<path fill-rule="evenodd" clip-rule="evenodd" d="M6 10C6 7.23888 8.23755 5 11 5C13.7613 5 16 7.23872 16 10C16 12.7624 13.7611 15 11 15C8.23772 15 6 12.7623 6 10ZM11 7C9.34245 7 8 8.34312 8 10C8 11.6577 9.34228 13 11 13C12.6569 13 14 11.6576 14 10C14 8.34328 12.6567 7 11 7ZM6 24C6 21.2389 8.23755 19 11 19C13.7613 19 16 21.2387 16 24C16 26.7624 13.7611 29 11 29C8.23772 29 6 26.7623 6 24ZM11 21C9.34245 21 8 22.3431 8 24C8 25.6577 9.34228 27 11 27C12.6569 27 14 25.6576 14 24C14 22.3433 12.6567 21 11 21ZM19 24C19 21.2387 21.2387 19 24 19C26.7613 19 29 21.2387 29 24C29 26.7624 26.7611 29 24 29C21.2389 29 19 26.7624 19 24ZM24 21C22.3433 21 21 22.3433 21 24C21 25.6576 22.3431 27 24 27C25.6569 27 27 25.6576 27 24C27 22.3433 25.6567 21 24 21ZM37 19C34.2387 19 32 21.2387 32 24C32 26.7624 34.2389 29 37 29C39.7611 29 42 26.7624 42 24C42 21.2387 39.7613 19 37 19ZM34 24C34 22.3433 35.3433 21 37 21C38.6567 21 40 22.3433 40 24C40 25.6576 38.6569 27 37 27C35.3431 27 34 25.6576 34 24ZM24 5C21.2387 5 19 7.23872 19 10C19 12.7624 21.2389 15 24 15C26.7611 15 29 12.7624 29 10C29 7.23872 26.7613 5 24 5ZM21 10C21 8.34328 22.3433 7 24 7C25.6567 7 27 8.34328 27 10C27 11.6576 25.6569 13 24 13C22.3431 13 21 11.6576 21 10ZM32 10C32 7.23872 34.2387 5 37 5C39.7613 5 42 7.23872 42 10C42 12.7624 39.7611 15 37 15C34.2389 15 32 12.7624 32 10ZM37 7C35.3433 7 34 8.34328 34 10C34 11.6576 35.3431 13 37 13C38.6569 13 40 11.6576 40 10C40 8.34328 38.6567 7 37 7ZM11 33C8.23755 33 6 35.2389 6 38C6 40.7623 8.23772 43 11 43C13.7611 43 16 40.7624 16 38C16 35.2387 13.7613 33 11 33ZM8 38C8 36.3431 9.34245 35 11 35C12.6567 35 14 36.3433 14 38C14 39.6576 12.6569 41 11 41C9.34228 41 8 39.6577 8 38ZM19 38C19 35.2387 21.2387 33 24 33C26.7613 33 29 35.2387 29 38C29 40.7624 26.7611 43 24 43C21.2389 43 19 40.7624 19 38ZM24 35C22.3433 35 21 36.3433 21 38C21 39.6576 22.3431 41 24 41C25.6569 41 27 39.6576 27 38C27 36.3433 25.6567 35 24 35ZM37 33C34.2387 33 32 35.2387 32 38C32 40.7624 34.2389 43 37 43C39.7611 43 42 40.7624 42 38C42 35.2387 39.7613 33 37 33ZM34 38C34 36.3433 35.3433 35 37 35C38.6567 35 40 36.3433 40 38C40 39.6576 38.6569 41 37 41C35.3431 41 34 39.6576 34 38Z" fill="#333333"/>
</svg>
